<?xml version="1.0" encoding="UTF-8" standalone="no"?>
<!-- Created with Inkscape (http://www.inkscape.org/) -->

<svg
   xmlns:dc="http://purl.org/dc/elements/1.1/"
   xmlns:cc="http://creativecommons.org/ns#"
   xmlns:rdf="http://www.w3.org/1999/02/22-rdf-syntax-ns#"
   xmlns:svg="http://www.w3.org/2000/svg"
   xmlns="http://www.w3.org/2000/svg"
   xmlns:sodipodi="http://sodipodi.sourceforge.net/DTD/sodipodi-0.dtd"
   xmlns:inkscape="http://www.inkscape.org/namespaces/inkscape"
   width="744.09448819"
   height="1052.3622047"
   id="svg4343"
   version="1.1"
   inkscape:version="0.48.5 r10040"
   sodipodi:docname="New document 17">
  <defs
     id="defs4345" />
  <sodipodi:namedview
     id="base"
     pagecolor="#ffffff"
     bordercolor="#666666"
     borderopacity="1.0"
     inkscape:pageopacity="0.0"
     inkscape:pageshadow="2"
     inkscape:zoom="0.35"
     inkscape:cx="375"
     inkscape:cy="520"
     inkscape:document-units="px"
     inkscape:current-layer="layer1"
     showgrid="false"
     inkscape:window-width="1600"
     inkscape:window-height="837"
     inkscape:window-x="-8"
     inkscape:window-y="-8"
     inkscape:window-maximized="1" />
  <metadata
     id="metadata4348">
    <rdf:RDF>
      <cc:Work
         rdf:about="">
        <dc:format>image/svg+xml</dc:format>
        <dc:type
           rdf:resource="http://purl.org/dc/dcmitype/StillImage" />
        <dc:title></dc:title>
      </cc:Work>
    </rdf:RDF>
  </metadata>
  <g
     inkscape:label="Layer 1"
     inkscape:groupmode="layer"
     id="layer1">
    <g
       id="g4664-1-2-4-6-3-0-6"
       transform="matrix(1.3618307,0,0,1.2607616,638.93823,824.60665)"
       inkscape:label="Gear8">
      <path
         inkscape:connector-curvature="0"
         style="font-size:medium;font-style:normal;font-variant:normal;font-weight:normal;font-stretch:normal;text-indent:0;text-align:start;text-decoration:none;line-height:normal;letter-spacing:normal;word-spacing:normal;text-transform:none;direction:ltr;block-progression:tb;writing-mode:lr-tb;text-anchor:start;baseline-shift:baseline;color:#ffffff;fill:#ffffff;fill-opacity:1;stroke:none;stroke-width:1.35207486;marker:none;visibility:visible;display:inline;overflow:visible;enable-background:accumulate;font-family:Sans;-inkscape-font-specification:Sans"
         d="m 3578.625,4146.4688 0,258.6874 33.875,41.5 36.2812,0 34.9063,0 43.7187,-41.5 0,-83.4687 -33.0312,-29.2813 24.0625,-23.6562 0,-82.625 -34.75,-39.6562 -34.9063,0 0,57.0937 18.8126,0 0,62.0625 -18.8126,0 0,56.0625 27.0938,0 0,68.0937 -27.0938,0 -18.8124,0 0,-68.0937 0,-56.0625 0,-62.0625 0,-57.0937 -51.3438,0 z m 168.4688,80.6562 0,219.5312 144.875,0 0,-219.5312 -51.5,0 0,177.9375 -42.0313,0 0,-177.9375 -51.3437,0 z m 238.5937,0 0,219.5312 123.2187,0 0,-41.5937 -71.875,0 0,-177.9375 -51.3437,0 z m 91.0625,0 0,41.75 47.9688,0 0,459.5938 51.6874,0 0,-459.5938 46.25,0 0,-41.75 -145.9062,0 z m -161.5625,0.125 0,219.4062 51.3437,0 0,-219.4062 -51.3437,0 z m -430.2187,198.0625 -36.9688,37.5313 0,225.125 36.9688,37.5312 14.5312,0 0,-56.875 0,-186.2188 45.0938,0 0,186.2188 -26.2813,0 0,56.875 40.625,0 37,-37.5312 0,-112.5626 0,-112.5624 -37,-37.5313 -73.9687,0 z M 3614,4465.625 l 33.2188,219.5625 81.3437,0 32.5313,-219.5625 -52.7188,0 -20.5,168.6875 -20.3438,-168.6875 -53.5312,0 z m 167.5938,0 0,219.5625 120.6562,0 0,-41.625 -69.125,0 0,-52.8125 64.0625,0 0,-41 -64.75,0 0,-42.375 68.125,0 0,-41.75 -118.9687,0 z m 176.9374,0 -37.2812,30.9688 0,188.5937 51.3438,0 0,-79.4063 0,-41.1562 0,-57.25 39.4687,0 0,57.25 -19.75,0 -6.1563,41.1562 30.5,79.4063 51.5,0 -32.5312,-80.0313 27.7812,0 0,-139.5312 -104.875,0 z m -346.0312,239.0938 -33.875,41.75 0,216.9374 33.875,41.5313 17.4688,0 0,-56.9063 0,-68.0937 0,-56.0313 0,-62.0937 37.625,0 0,62.0937 -18.8126,0 0,56.0313 27.0938,0 0,68.0937 -27.0938,0 0,56.9063 78.625,0 0,-125 -33.0312,-29.25 24.0625,-23.6875 0,-82.625 -34.75,-39.6562 -71.1875,0 z m 169.2812,0 -36.9687,27.4687 0,164.6563 36.9687,27.4374 14.5313,0 0,-41.5937 0,-136.2187 45.0937,0 0,136.2187 -26.2812,0 0,41.5937 40.6562,0 36.9688,-27.4374 0,-164.6563 -36.9688,-27.4687 -74,0 z m 125.8438,0 0,41.75 47.9688,0 0,177.8124 51.6874,0 0,-177.8124 46.25,0 0,-41.75 -145.9062,0 z m 217.0938,45.6562 0,12.2812 24.8437,40.4063 c -0.2378,1.7365 -0.3583,3.6689 -0.4687,5.5937 -0.1144,1.9916 -0.2204,3.9521 -0.4063,5.5626 -0.1858,1.6105 -0.5189,2.8938 -0.8125,3.3437 -4.689,7.1834 -8.5787,12.0622 -10.2188,15.5313 -0.4099,0.8672 -0.7012,1.6379 -0.7812,2.4062 -0.08,0.7683 0.09,1.5628 0.5312,2.1875 0.055,0.078 0.1262,0.1465 0.1876,0.2187 l -7.4688,0.125 c -0.5139,0.2639 -1.1628,0.3118 -1.6562,0.5938 1.8332,3.1225 2.875,6.7279 2.875,10.5625 0,8.5583 -5.211,15.9667 -12.7813,19.4687 -0.091,-0.7883 -0.1563,-1.595 -0.1563,-2.4062 0,-3.6396 0.9523,-7.0946 2.375,-9.6562 l 0.7813,-1.3438 c -0.2473,-0.065 -0.7982,-0.1607 -1.1563,-0.3438 l -34.125,-14.7187 -0.031,0 -44.9688,-1.875 -14.3124,-2.6875 -0.9376,-0.1875 -0.1874,0.875 c -0.9244,4.8509 -1.4376,9.8421 -1.4376,14.9687 0,5.0309 0.516,9.9543 1.4063,14.7188 l 0.625,-0.094 20.5313,10.5 3.4687,7.8126 -13.5313,8.375 -0.7187,0.4062 0.4375,0.6875 c 5.682,9.033 13.1406,16.9152 21.875,23.0937 11.1374,5.5777 23.6082,11.3854 35.25,16.9376 0.012,0.01 0.019,0.023 0.031,0.031 l 0.7188,0.5 0.5312,-0.7188 0.5938,-0.8437 27.25,13.6563 c 0.053,0.089 0.1303,0.2869 0.25,0.4374 l 0.8125,0.1563 c 5.5249,1.1713 11.252,1.7813 17.125,1.7813 5.8142,0 11.4642,-0.6017 16.9375,-1.75 l 0.8125,-0.1563 -0.094,-0.8125 -0.063,-0.5312 0,-0.031 -0.031,-0.031 -3.8438,-17.7187 9.9063,-3.8125 22.25,10.0938 c 0.123,0.1244 0.2097,0.128 0.5625,0.3124 l 0.7188,-0.5 c 8.7483,-6.1735 16.2082,-14.0184 21.9062,-23.0624 l 0.4688,-0.75 -0.7813,-0.5 -13.5937,-8.375 9.0312,-20.1563 14.7188,2.75 0.875,0.1875 L 4221,4883 c 0.896,-4.7821 1.4375,-9.7306 1.4375,-14.7812 0,-5.1359 -0.5565,-10.1236 -1.4063,-14.9376 l -0.1562,-0.875 c 0,0 -0.5002,-0.038 -0.75,-0.062 l -27.625,-17.1876 c 0,0 -12.31,1.4663 -18.1875,2.0626 l -32.4375,0.5937 c -1.7623,-0.2769 -2.7326,-0.7335 -3.0312,-1.1563 -0.1707,-0.2416 -0.2355,-0.5085 -0.1876,-0.9687 0.048,-0.4602 0.2337,-1.0822 0.5938,-1.8437 1.4401,-3.0461 5.3614,-8.0628 10.0938,-15.3126 0.661,-1.0127 0.8976,-2.3942 1.0937,-4.0937 0.1962,-1.6995 0.2924,-3.7035 0.4063,-5.6875 0.1072,-1.8689 0.2533,-3.7021 0.4687,-5.3125 l 25.0937,-40.7813 0,-12.2812 -51.6874,0 z m 67.875,86.625 25.1874,15.9688 -12.75,2.25 -42.8437,-0.5 c -0.2651,-0.2016 -0.3476,-0.2611 -0.5313,-0.4063 l -28.5624,-14.5937 8.5624,-0.1563 c 0.2613,0.037 0.4991,0.095 0.7813,0.125 l 0,-0.125 32.5313,-0.5625 c 5.8751,-0.6232 11.8429,-1.3336 17.625,-2 z m -165.125,0.7188 c 11.1823,5.4127 22.307,10.9532 33.5,16.3437 0,0 -1.3126,9.3169 -1.3126,14.1563 0,4.5229 0.4525,8.9684 1.1876,13.2812 l -33.4063,-17.0625 c -0.7371,-4.2789 -1.1875,-8.6822 -1.1875,-13.1563 0,-4.6296 0.436,-9.1469 1.2188,-13.5624 z m 5.6874,0.8124 8.0626,1.5313 0,0.031 0.125,0 0.4687,0.094 0,-0.062 44.1563,1.8438 30.9687,13.375 c -7.9767,0.1422 -16.585,0.031 -24.0625,0.031 l -15.625,0 -0.031,0 -15.0626,-2.8438 -0.75,-0.125 0.031,-0.094 -28.2813,-13.7813 z m 98.0938,2.2188 29.4375,15.0938 0.1563,0.2187 c 1.7491,2.7518 2.8124,6.3529 2.8124,10.1875 0,11.9208 -10.1045,21.625 -22.625,21.625 -10.9907,0 -20.1208,-7.4842 -22.1874,-17.375 8.4089,-3.6858 14.2812,-11.8598 14.2812,-21.3125 0,-3.0114 -0.7916,-5.7924 -1.875,-8.4375 z m -81.6875,37 c 3.7831,2.2052 11.6875,6.0938 11.6875,6.0938 5.1596,-0.9505 10.313,-1.9348 15.4688,-2.9063 l 8.375,18.8125 -32.4688,-14.8125 c 0,0 -2.0075,-4.825 -3.0625,-7.1875 z m 1.3437,8.25 c 11.1466,5.2471 22.7098,10.4524 34.0313,15.625 l -12.125,7.5 c -11.2019,-5.3115 -22.4399,-10.5912 -33.6563,-15.875 l 11.75,-7.25 z m -10.75,9.6562 31.7188,14.9688 c 0.027,0.033 0.039,0.037 0.062,0.062 4.2405,6.7413 9.4409,12.8142 15.4375,18.0313 l -27.8125,-13.2813 c -7.49,-6.0599 -14.6726,-13.0137 -19.4063,-19.7813 z m 65.0938,23.625 21.9062,8.4063 -3.6874,16.9687 -26.8126,-13.4062 8.5938,-11.9688 z m 71.4688,0 8.6562,12 -18.3438,-8.2812 9.6876,-3.7188 z"
         transform="matrix(0.73430567,0,0,0.79317137,-3012.737,-3861.2317)"
         id="path4666-2-7-6-3-2-3-6" />
    </g>
    <flowRoot
       transform="matrix(1.0595434,0,0,0.8964235,-234.23871,228.26525)"
       style="font-size:150px;font-style:normal;font-variant:normal;font-weight:normal;font-stretch:normal;line-height:125%;letter-spacing:0px;word-spacing:0px;fill:#ffffff;fill-opacity:1;stroke:none;font-family:Nature Beauty Personal Use;-inkscape-font-specification:Nature Beauty Personal Use"
       id="flowRoot3090-7-1-1-0-7"
       xml:space="preserve"><flowRegion
         id="flowRegion3092-6-8-0-6-8"><rect
           y="695.2193"
           x="482.85715"
           height="608.57141"
           width="1671.4286"
           id="rect3094-8-9-9-8-5" /></flowRegion><flowPara
         style="font-style:normal;font-variant:normal;font-weight:bold;font-stretch:normal;font-family:Arial Narrow;-inkscape-font-specification:Arial Narrow Bold"
         id="flowPara3096-7-8-9-1-4">.com</flowPara></flowRoot>  </g>
</svg>
