<?xml version="1.0" standalone="no"?>
<!DOCTYPE svg PUBLIC "-//W3C//DTD SVG 20010904//EN"
 "http://www.w3.org/TR/2001/REC-SVG-20010904/DTD/svg10.dtd">
<svg version="1.0" xmlns="http://www.w3.org/2000/svg"
 width="1254.000000pt" height="1254.000000pt" viewBox="0 0 1254.000000 1254.000000"
 preserveAspectRatio="xMidYMid meet">

<g transform="translate(0.000000,1254.000000) scale(0.100000,-0.100000)"
fill="#ffffff" stroke="none">
<path d="M5668 11910 c-192 -11 -177 21 -334 -709 -36 -166 -69 -314 -74 -327
-13 -33 -45 -46 -273 -109 -311 -86 -495 -160 -871 -350 -93 -47 -178 -85
-189 -85 -28 0 -86 38 -422 275 -375 264 -384 270 -451 269 -70 -1 -103 -23
-261 -164 -406 -365 -730 -675 -754 -723 -39 -75 -24 -108 224 -524 146 -244
197 -334 217 -387 11 -31 -11 -78 -114 -240 -186 -293 -315 -548 -421 -832
-36 -99 -71 -191 -76 -205 -6 -15 -26 -41 -44 -59 -33 -32 -39 -34 -158 -46
-150 -16 -662 -99 -732 -119 -59 -17 -126 -70 -149 -118 -15 -34 -49 -398 -91
-982 -20 -268 -16 -298 44 -355 45 -43 57 -48 511 -205 195 -68 363 -126 372
-130 11 -4 19 -23 24 -53 56 -407 118 -670 238 -1007 69 -193 78 -232 61 -264
-20 -38 -119 -154 -374 -439 -204 -229 -227 -258 -234 -299 -13 -76 7 -141 74
-237 95 -138 557 -765 611 -830 86 -104 152 -142 222 -129 40 8 343 121 556
208 91 37 188 75 216 85 l52 18 38 -26 c22 -14 113 -87 204 -162 279 -232 431
-338 662 -464 l68 -37 0 -52 c0 -29 -5 -160 -10 -292 -13 -333 -14 -614 -1
-647 22 -57 78 -82 475 -213 574 -190 599 -197 679 -193 61 3 70 7 101 38 41
41 138 211 301 522 65 125 128 239 139 253 l22 27 394 4 c217 2 441 1 498 -2
l103 -7 29 -41 c15 -23 95 -167 178 -321 194 -363 212 -393 268 -444 45 -43
47 -43 103 -38 84 8 866 260 1024 330 57 25 72 37 90 71 22 41 22 43 18 519
-2 378 0 481 10 493 7 8 62 45 123 81 236 140 444 292 699 509 l108 93 37 -14
c20 -7 184 -72 364 -143 358 -143 387 -153 457 -154 100 0 119 20 488 519 404
548 391 527 400 618 8 75 -15 116 -144 261 -60 66 -174 195 -255 285 -200 224
-218 248 -218 286 0 17 23 96 52 175 103 288 167 532 222 853 20 116 39 221
44 234 6 20 53 39 392 157 212 74 414 149 450 167 91 45 110 84 110 222 0 108
-74 1005 -90 1094 -18 98 -87 160 -206 185 -39 8 -219 40 -400 71 -181 31
-355 62 -387 68 l-59 12 -73 190 c-40 105 -91 233 -115 285 -108 244 -276 545
-393 703 -32 43 -65 93 -74 113 -17 34 -16 36 14 97 17 35 86 158 154 273 281
478 288 493 268 568 -9 34 -36 67 -152 181 -275 271 -711 657 -791 701 -67 37
-118 36 -185 -2 -28 -16 -143 -96 -256 -179 -384 -281 -466 -336 -489 -330
-12 3 -109 50 -216 105 -321 162 -509 234 -872 336 -112 31 -208 60 -215 66
-16 13 -46 132 -103 413 -110 541 -130 599 -222 644 -44 21 -52 21 -599 19
-305 0 -602 -4 -661 -8z m1032 -1675 c550 -66 1073 -253 1555 -554 152 -95
322 -216 438 -313 132 -110 374 -343 392 -377 7 -14 48 -62 91 -106 137 -139
312 -381 435 -601 106 -189 311 -607 348 -710 80 -218 148 -563 172 -867 15
-192 6 -685 -15 -867 -22 -185 -63 -413 -91 -512 -66 -232 -103 -343 -173
-523 -38 -98 -178 -381 -248 -500 -94 -162 -124 -219 -124 -240 0 -11 25 -74
56 -140 140 -298 174 -378 174 -403 0 -35 -70 -242 -113 -334 -57 -122 -2
-110 -575 -117 l-497 -6 -45 -24 c-25 -13 -83 -50 -130 -81 -148 -100 -505
-285 -710 -370 -351 -144 -712 -232 -1065 -261 -195 -16 -579 -16 -700 -1
-461 59 -861 173 -1251 357 -188 88 -508 276 -601 351 l-41 34 -439 1 c-241 0
-474 4 -517 8 -73 6 -81 9 -106 40 -34 41 -90 184 -121 310 l-23 94 23 66 c13
36 65 154 117 261 52 107 94 204 94 215 0 12 -38 86 -85 165 -267 452 -428
875 -519 1360 -48 254 -51 299 -51 670 0 380 9 502 51 725 98 507 269 957 526
1386 145 240 236 360 411 539 29 30 60 68 68 84 7 15 78 90 156 166 313 303
581 494 971 689 490 245 887 357 1427 401 159 13 576 4 735 -15z"/>
<path d="M5540 9943 c-51 -10 -50 -4 -50 -349 l0 -324 765 0 766 0 -3 308 c-3
303 -3 307 -26 340 l-23 32 -702 -1 c-386 -1 -713 -4 -727 -6z"/>
<path d="M5615 9181 c-246 -5 -273 -8 -304 -26 -68 -40 -66 -16 -66 -841 l0
-740 25 -36 c37 -55 67 -68 154 -68 l76 0 0 -125 0 -125 745 0 745 0 0 125 0
125 73 0 c91 0 134 20 163 78 32 62 36 199 25 904 -10 697 -7 674 -86 713 -39
19 -61 20 -660 21 -341 1 -741 -2 -890 -5z"/>
<path d="M7574 8609 c-107 -5 -126 -8 -167 -32 -35 -21 -49 -37 -64 -74 -17
-45 -18 -96 -18 -848 0 -440 3 -812 8 -827 4 -15 21 -43 38 -62 43 -50 99 -60
303 -54 148 5 169 8 213 29 30 15 55 37 68 59 20 34 20 51 20 845 l0 810 -22
48 c-20 42 -30 51 -85 76 -72 34 -121 38 -294 30z m142 -323 c46 -46 47 -91 3
-141 -26 -29 -38 -35 -71 -35 -32 0 -47 7 -74 34 -38 38 -43 70 -19 116 34 66
109 78 161 26z m-25 -1089 c67 -45 74 -114 17 -162 -39 -33 -70 -40 -104 -23
-67 31 -67 148 -1 188 41 25 47 25 88 -3z"/>
<path d="M4621 8578 c-78 -40 -84 -56 -93 -241 -5 -89 -7 -459 -6 -822 3 -733
0 -700 71 -762 47 -41 90 -47 292 -41 138 5 168 9 203 27 82 42 77 -19 74 910
-3 774 -4 827 -21 866 -31 70 -62 79 -286 83 -181 3 -192 2 -234 -20z m304
-282 c53 -54 37 -154 -30 -182 -48 -20 -96 -10 -132 28 -22 23 -28 38 -28 74
0 39 5 50 33 75 44 39 120 42 157 5z m-28 -1096 c43 -26 67 -73 59 -115 -8
-42 -66 -95 -104 -95 -88 2 -145 116 -91 184 38 48 85 57 136 26z"/>
<path d="M8056 8194 c-3 -26 -6 -78 -6 -115 l0 -69 623 0 c639 0 927 7 927 22
0 4 -21 53 -46 108 l-47 100 -722 0 -722 0 -7 -46z"/>
<path d="M2937 8139 c-76 -146 -169 -129 723 -129 l770 0 0 110 0 110 -723 0
-723 0 -47 -91z"/>
<path d="M8050 7590 l0 -310 916 0 917 0 -7 43 c-10 64 -122 390 -168 489
l-41 88 -808 0 -809 0 0 -310z"/>
<path d="M2780 7813 c-67 -160 -170 -507 -155 -521 4 -4 411 -8 906 -10 l899
-3 -2 303 -3 303 -807 3 -806 2 -32 -77z"/>
<path d="M2576 7148 c-4 -13 -9 -62 -13 -110 l-6 -88 937 0 936 0 0 110 0 110
-924 0 -924 0 -6 -22z"/>
<path d="M8050 7055 l0 -115 884 0 c485 0 911 3 946 7 l62 6 -5 56 c-3 31 -11
80 -17 109 l-12 52 -929 0 -929 0 0 -115z"/>
<path d="M5455 7135 c-5 -2 -22 -6 -37 -9 -38 -8 -48 -49 -48 -192 0 -122 0
-124 29 -156 l29 -33 799 0 c647 0 805 3 836 14 56 19 67 53 67 200 0 99 -3
122 -17 137 -45 44 -40 44 -865 43 -431 0 -787 -2 -793 -4z"/>
<path d="M5677 6653 c-3 -5 -10 -82 -17 -173 -17 -226 -2 -302 67 -347 25 -17
65 -18 524 -16 335 1 503 5 517 12 31 17 43 93 49 324 l6 207 -571 0 c-314 0
-573 -3 -575 -7z"/>
<path d="M5832 5952 c3 -83 5 -90 44 -147 l41 -60 322 0 323 0 34 40 c55 64
65 90 67 173 l2 77 -418 3 -419 2 4 -88z"/>
<path d="M6112 5481 c2 -99 6 -182 10 -186 15 -15 51 11 154 109 l108 103 4
76 4 77 -142 0 -141 0 3 -179z"/>
<path d="M6269 5343 c-161 -139 -154 -128 -157 -241 -3 -110 4 -131 40 -115
38 17 218 183 230 211 13 32 13 176 0 211 -8 23 -12 21 -113 -66z"/>
<path d="M3743 5282 c-11 -7 -257 -506 -575 -1167 -66 -137 -154 -320 -195
-405 -41 -85 -77 -171 -80 -190 -6 -48 76 -266 112 -297 l26 -23 1958 0 c1077
0 2525 3 3219 7 1174 6 1263 8 1280 23 36 34 110 280 97 322 -9 29 -52 120
-205 433 -67 138 -180 372 -252 520 -71 149 -186 386 -255 528 l-127 257
-1088 0 -1088 0 0 -50 c0 -31 5 -52 13 -55 6 -3 462 -9 1012 -14 550 -5 1009
-12 1021 -16 25 -8 16 10 351 -700 378 -799 376 -793 381 -845 l4 -47 -318 -6
c-174 -4 -449 -7 -610 -7 l-293 0 -10 38 c-21 76 -51 213 -51 229 0 14 19 15
178 9 197 -8 240 -16 295 -53 45 -31 126 -41 182 -23 23 8 47 27 66 52 47 66
37 129 -31 193 -27 26 -39 30 -105 33 l-74 4 -49 -47 -50 -46 -244 3 c-219 3
-246 1 -271 -15 -24 -15 -27 -24 -27 -72 0 -31 11 -107 25 -171 14 -64 25
-123 25 -131 0 -14 -14 -15 -112 -8 -160 10 -151 3 -166 131 -7 60 -26 188
-43 284 -16 96 -29 183 -29 193 0 18 14 19 378 12 208 -4 405 -4 438 0 52 6
64 12 101 51 81 84 80 177 -2 234 -49 34 -56 49 -96 230 -21 90 -21 101 -7
112 48 40 62 112 32 169 -21 42 -92 72 -166 72 -46 0 -63 -5 -92 -26 -86 -66
-61 -187 49 -238 27 -13 32 -24 62 -134 35 -131 41 -180 19 -188 -19 -7 -56
-87 -56 -120 l0 -27 -217 -1 c-120 0 -284 -4 -365 -7 -183 -9 -201 -18 -206
-104 -3 -50 43 -426 68 -567 6 -30 10 -58 10 -63 0 -4 -60 -8 -133 -8 l-134 0
-12 223 c-6 122 -19 294 -27 382 -15 147 -14 277 2 318 3 9 54 54 112 101 191
150 222 188 167 202 -37 9 -106 -4 -140 -26 -17 -11 -88 -68 -160 -128 l-130
-108 0 -75 c0 -41 6 -153 13 -249 7 -96 19 -265 27 -375 8 -110 17 -217 20
-237 l5 -38 -838 0 -839 0 -83 138 c-214 352 -342 552 -366 571 -26 21 -36 21
-575 21 -397 0 -549 3 -549 11 0 26 45 89 71 99 39 16 98 76 105 106 4 14 2
43 -5 64 -15 51 -14 124 3 164 10 24 28 39 69 60 44 21 60 36 76 70 12 23 21
52 21 65 0 61 -62 116 -143 127 -36 5 -56 2 -92 -16 -91 -44 -121 -136 -69
-211 21 -31 24 -43 18 -75 -8 -44 -40 -80 -81 -90 -73 -18 -133 -87 -133 -154
0 -32 19 -80 31 -80 5 0 13 -9 18 -19 8 -14 5 -34 -9 -77 -24 -67 -26 -123 -6
-150 14 -18 36 -19 598 -25 321 -4 584 -7 585 -8 9 -6 353 -568 353 -577 0 -8
-1971 -3 -2094 5 -146 10 -155 17 -125 92 22 56 500 1071 619 1314 43 88 89
170 102 182 l23 22 1015 8 1015 8 3 53 3 52 -1083 0 c-596 0 -1088 -4 -1095
-8z m415 -364 c17 -17 15 -45 -4 -52 -46 -18 -92 10 -74 45 12 22 59 26 78 7z
m4222 -3 c17 -21 6 -41 -25 -47 -41 -8 -65 1 -65 26 0 13 3 26 7 29 12 13 71
7 83 -8z m-4374 -387 c12 -18 -26 -58 -55 -58 -36 0 -59 25 -44 48 17 28 84
35 99 10z m4488 -181 c9 -15 6 -23 -17 -43 -34 -29 -63 -31 -77 -3 -18 32 12
71 52 67 17 -2 36 -11 42 -21z m194 -429 c32 -32 -3 -72 -56 -66 -30 3 -42 39
-22 64 15 17 61 19 78 2z"/>
<path d="M6287 5045 c-102 -81 -148 -124 -163 -153 -20 -39 -19 -211 1 -218
15 -6 83 43 166 121 70 66 87 91 94 146 9 63 -2 159 -18 159 -7 0 -43 -25 -80
-55z"/>
<path d="M7735 5052 c-11 -4 -40 -20 -64 -37 l-44 -30 -227 -5 c-179 -4 -231
-8 -247 -20 -44 -31 -349 -295 -365 -316 -17 -20 -17 -41 -8 -280 5 -143 10
-297 10 -343 l0 -83 -536 3 -537 4 -76 81 c-42 45 -84 97 -95 114 l-19 33 284
-7 c356 -9 408 -15 457 -52 30 -23 49 -29 103 -32 113 -7 169 41 169 142 0 47
-4 60 -30 89 -50 58 -156 75 -213 35 -18 -13 -42 -33 -55 -45 l-23 -23 -408 0
c-396 0 -408 -1 -429 -20 -12 -12 -22 -31 -22 -44 0 -27 58 -115 182 -281 l83
-110 621 0 c598 0 623 1 643 19 21 19 21 27 21 340 0 177 3 345 7 374 6 51 9
55 67 99 34 26 88 71 121 102 33 30 84 66 115 80 52 24 64 26 210 26 85 0 167
-4 182 -8 15 -4 44 -22 64 -39 32 -28 45 -33 105 -36 57 -4 74 -1 104 18 121
75 64 235 -90 254 -22 3 -49 2 -60 -2z m76 -102 c11 -6 19 -21 19 -35 0 -23
-4 -25 -45 -25 -41 0 -45 2 -45 25 0 13 8 29 18 34 22 13 29 13 53 1z m-1393
-702 c7 -7 12 -23 12 -36 0 -21 -3 -23 -47 -20 -37 2 -49 7 -51 21 -8 39 56
65 86 35z"/>
<path d="M4588 5030 c-64 -19 -108 -68 -122 -137 -6 -27 -2 -37 28 -71 20 -22
36 -49 36 -61 0 -12 -14 -68 -31 -125 -58 -187 -60 -186 357 -186 l306 0 74
69 c41 37 98 81 127 97 l52 29 253 3 252 4 0 31 c0 18 -3 42 -6 55 l-6 22
-293 0 -292 0 -81 -74 c-44 -41 -91 -80 -104 -88 -17 -9 -88 -14 -270 -16
-285 -4 -263 -14 -228 101 18 59 23 66 66 88 59 30 85 65 91 121 4 38 1 49
-23 77 -48 58 -120 81 -186 61z m86 -108 c21 -34 -38 -78 -69 -52 -18 15 -20
46 -2 53 20 9 65 8 71 -1z"/>
<path d="M6284 4733 c-158 -142 -171 -168 -110 -229 46 -46 91 -47 141 -3 20
18 43 45 51 61 19 37 28 148 17 208 l-8 44 -91 -81z"/>
<path d="M3635 4011 c-57 -34 -85 -77 -85 -129 0 -134 146 -187 273 -99 l53
37 399 0 398 0 38 -34 c65 -59 144 -65 223 -17 46 29 66 67 66 128 0 84 -57
133 -154 133 -64 0 -98 -14 -140 -59 l-30 -31 -365 0 c-399 0 -437 3 -444 31
-14 55 -166 81 -232 40z m1235 -91 c37 -37 18 -70 -41 -70 -45 0 -65 20 -50
49 23 42 61 51 91 21z m-1118 -14 c17 -39 4 -56 -42 -56 -36 0 -40 3 -40 24 0
42 11 56 41 56 21 0 32 -7 41 -24z"/>
</g>
</svg>
